<?xml version="1.0" encoding="UTF-8" standalone="no"?>
<svg
   xmlns:dc="http://purl.org/dc/elements/1.1/"
   xmlns:cc="http://creativecommons.org/ns#"
   xmlns:rdf="http://www.w3.org/1999/02/22-rdf-syntax-ns#"
   xmlns:svg="http://www.w3.org/2000/svg"
   xmlns="http://www.w3.org/2000/svg"
   xmlns:sodipodi="http://sodipodi.sourceforge.net/DTD/sodipodi-0.dtd"
   xmlns:inkscape="http://www.inkscape.org/namespaces/inkscape"
   sodipodi:docname="pogLogo2.svg"
   inkscape:version="1.0 (4035a4fb49, 2020-05-01)"
   inkscape:export-ydpi="8.7272701"
   inkscape:export-xdpi="8.7272701"
   inkscape:export-filename="/home/adrian/programming/projects/lawsdontapplytopigs/main/prebuilt/squarePog.png"
   id="svg8"
   version="1.1"
   viewBox="0 0 15.875 15.875"
   height="60"
   width="60">
  <defs
     id="defs2" />
  <sodipodi:namedview
     inkscape:window-maximized="1"
     inkscape:window-y="43"
     inkscape:window-x="0"
     inkscape:window-height="1035"
     inkscape:window-width="2558"
     borderlayer="true"
     fit-margin-bottom="0"
     fit-margin-right="0"
     fit-margin-left="0"
     fit-margin-top="0"
     units="px"
     showgrid="false"
     inkscape:document-rotation="0"
     inkscape:current-layer="layer3"
     inkscape:document-units="mm"
     inkscape:cy="41.450725"
     inkscape:cx="44.407474"
     inkscape:zoom="5.3749512"
     inkscape:pageshadow="2"
     inkscape:pageopacity="0.0"
     borderopacity="1.0"
     bordercolor="#666666"
     pagecolor="#ffffff"
     id="base">
    <inkscape:grid
       type="xygrid"
       id="grid840"
       originx="-7.9138161"
       originy="-6.1391789" />
  </sodipodi:namedview>
  <metadata
     id="metadata5">
    <rdf:RDF>
      <cc:Work
         rdf:about="">
        <dc:format>image/svg+xml</dc:format>
        <dc:type
           rdf:resource="http://purl.org/dc/dcmitype/StillImage" />
        <dc:title></dc:title>
      </cc:Work>
    </rdf:RDF>
  </metadata>
  <g
     inkscape:groupmode="layer"
     id="layer3"
     inkscape:label="Layer 3"
     style="display:inline"
     transform="translate(-7.9138162,-6.1391788)">
    <path
       style="fill:#000000;fill-opacity:1;stroke:none;stroke-width:0.372643px;stroke-linecap:butt;stroke-linejoin:miter;stroke-opacity:1"
       d="m 13.373459,12.24137 c 0,0 -0.390977,0.256747 -0.228088,0.475084 0.264282,0.35426 0.07931,0.35702 0.662165,0.441013 0.201735,0.02907 0.67409,-0.555398 0.271304,-0.763569 -0.402785,-0.208169 -0.705381,-0.152534 -0.705381,-0.152534 z"
       id="path868"
       sodipodi:nodetypes="cssscc" />
    <path
       style="fill:#000000;fill-opacity:1;stroke:none;stroke-width:1.12443;stroke-linecap:butt;stroke-linejoin:miter;stroke-miterlimit:4;stroke-dasharray:none;stroke-opacity:1"
       d="m 19.536279,15.761783 c -0.243782,-0.0097 -0.801619,0.12107 -0.801619,0.12107 -0.282646,0.141612 -0.565415,0.162812 -0.936931,0.427453 -0.371517,0.264641 -0.347995,0.537597 -0.730854,0.960772 -0.145983,0.161355 -0.112593,0.289626 -0.41896,0.506727 -0.102133,0.07238 -0.869122,-0.06216 -0.355534,0.252315 0.474815,0.20941 0.84881,0.417933 0.970132,1.065407 0.03248,0.173351 0.391188,0.454838 0.728426,0.541245 0.375995,0.09634 0.57683,0.139904 1.106607,0.114857 1.135928,-0.05371 1.3494,-0.336848 1.43384,-0.687432 0.08578,-0.35616 0.0959,-0.290543 0.410414,-0.616891 0.35592,-0.369309 0.381645,-0.774533 0.288435,-1.288971 -0.186422,-1.028875 -1.037533,-1.370361 -1.694004,-1.396548 z"
       id="path870"
       sodipodi:nodetypes="ssssscssssssss" />
    <path
       style="fill:#ffffff;fill-opacity:1;stroke:#ffffff;stroke-width:0;stroke-linecap:butt;stroke-linejoin:miter;stroke-miterlimit:4;stroke-dasharray:none;stroke-opacity:1"
       d="m 18.321922,17.401578 c 0.05469,0.04771 0.139246,0.0946 0.258697,0.09199 0.163575,-0.0036 0.239803,0.02543 0.327094,-0.0029 0.0873,-0.02843 0.161506,-0.02544 0.194267,-0.105062 0.02868,-0.06971 0.04316,-0.130172 0.04316,-0.130172 -0.0085,-0.059 -0.01593,-0.143042 -0.06055,-0.166243 -0.04134,-0.02148 -0.134313,-0.115596 -0.298996,-0.139421 -0.214716,-0.03528 -0.408665,-0.02526 -0.532216,0.174104 -0.0044,0.120165 0.01386,0.229995 0.06854,0.2777 z"
       id="path872"
       sodipodi:nodetypes="zssscsccz" />
    <path
       style="fill:#ffffff;fill-opacity:1;stroke:#ffffff;stroke-width:0;stroke-linecap:butt;stroke-linejoin:miter;stroke-miterlimit:4;stroke-dasharray:none;stroke-opacity:1"
       d="m 19.712572,17.480155 c 0.283556,0.0755 0.239923,0.06361 0.503197,0.02026 0.111928,-0.02385 0.29323,-0.134645 0.277602,-0.25803 -0.05326,-0.223096 -0.191723,-0.232552 -0.369772,-0.272719 -0.150869,-0.0079 -0.398041,0.0055 -0.465723,0.138216 -0.07557,0.201134 -0.04781,0.297756 0.0547,0.372282 z"
       id="path874"
       sodipodi:nodetypes="ccccccc" />
    <path
       style="fill:#000000;fill-opacity:1;stroke:none;stroke-width:0.473758px;stroke-linecap:butt;stroke-linejoin:miter;stroke-opacity:1"
       d="m 17.466917,12.228779 c -0.139249,0.08204 -0.302266,0.3557 0.06988,0.475979 0.221361,0.07155 0.474335,0.06535 0.524663,-0.210061 0.05475,-0.299619 -0.329666,-0.310956 -0.329666,-0.310956 z"
       id="path876"
       sodipodi:nodetypes="csscc" />
    <path
       style="fill:#000000;fill-opacity:1;stroke:#000000;stroke-width:0;stroke-linecap:butt;stroke-linejoin:miter;stroke-miterlimit:4;stroke-dasharray:none;stroke-opacity:1"
       d="m 20.219279,19.179933 c 0,0 -0.459579,0.07912 -0.925462,-0.05871 -0.465877,-0.137851 -0.885741,-0.28663 -1.261909,-0.41878 -0.376168,-0.132151 -1.739503,-0.672323 -1.739503,-0.672323 -0.824307,-0.575856 0.488784,0.200393 -0.464853,-0.235982 0,0 -0.433355,-0.257041 -1.095364,-0.397215 -0.66201,-0.140176 -0.62359,-0.279502 -0.62359,-0.279502 0,0 0.06023,-0.140105 0.375698,-0.0777 0.381051,0.0753 0.186462,0.08245 0.526216,0.177675 0.339755,0.09525 0.764394,0.212052 1.17958,0.325438 0.401956,0.07151 0.50889,0.09076 0.712583,0.0217 0.961879,0.267385 0.359331,0.243414 1.169762,0.448314 1.081918,0.273528 1.350876,0.511962 1.9667,0.552796 0.712246,0.04722 0.275653,0.06547 0.275653,0.06547"
       id="path888"
       sodipodi:nodetypes="czzcczcssccssc" />
  </g>
  <g
     inkscape:groupmode="layer"
     id="layer4"
     inkscape:label="Layer 4"
     style="display:inline"
     transform="translate(-7.9138162,-6.1391788)">
    <path
       style="fill:#000000;fill-opacity:1;stroke:#000000;stroke-width:0.264583px;stroke-linecap:butt;stroke-linejoin:miter;stroke-opacity:1"
       d="m 10.240616,11.622981 c 0,0 -0.7986089,-0.614586 -1.0862901,-0.923013 -0.2876812,-0.308426 -1.1285706,-0.778197 1.3701451,-1.3906908 0,0 0.187264,-0.1653397 0.09314,-0.5102783 -0.102973,-0.3773652 0.09771,-0.9387827 0.329658,-0.9248069 0.463892,0.027952 0.161363,2.319962 0.06539,2.891586 -0.09598,0.571624 -0.772037,0.857203 -0.772037,0.857203 z"
       id="path884"
       sodipodi:nodetypes="cssssccc" />
    <path
       style="fill:#000000;fill-opacity:1;stroke:#000000;stroke-width:0.264583px;stroke-linecap:butt;stroke-linejoin:miter;stroke-opacity:1"
       d="m 16.944661,9.8237299 0.867904,1.2754151 c 0,0 2.294598,-0.232413 2.628956,-0.394087 0.334358,-0.161673 0.283361,-0.454502 0.283361,-0.454502 0,0 0.348943,0.20506 0.605332,0.150735 0.220628,-0.04675 1.530525,-0.4857202 1.767521,-0.320699 0.236996,0.165021 -0.08147,-0.1429059 -0.236842,-0.4099209 C 22.705542,9.4036562 22.476334,9.012532 21.861833,8.7036516 21.590327,8.5671784 21.360832,8.512423 20.712639,8.5181268 c -0.368485,0.00324 -0.993316,0.042389 -1.317851,0.3044853 0,0 -0.765952,0.5399742 -1.19284,0.6945209 -1.080476,0.3911661 -1.193342,-0.3963628 -1.257287,0.3065969 z"
       id="path886"
       sodipodi:nodetypes="ccscszsssssc" />
  </g>
</svg>
