<?xml version="1.0" encoding="UTF-8" standalone="no"?>
<svg
   xmlns:dc="http://purl.org/dc/elements/1.1/"
   xmlns:cc="http://creativecommons.org/ns#"
   xmlns:rdf="http://www.w3.org/1999/02/22-rdf-syntax-ns#"
   xmlns:svg="http://www.w3.org/2000/svg"
   xmlns="http://www.w3.org/2000/svg"
   id="svg8"
   version="1.1"
   viewBox="0 0 158.75 158.75"
   height="600"
   width="600">
  <defs
     id="defs2" />
  <metadata
     id="metadata5">
    <rdf:RDF>
      <cc:Work
         rdf:about="">
        <dc:format>image/svg+xml</dc:format>
        <dc:type
           rdf:resource="http://purl.org/dc/dcmitype/StillImage" />
        <dc:title></dc:title>
      </cc:Work>
    </rdf:RDF>
  </metadata>
  <g
     id="layer3"
     style="display:inline"
     transform="translate(-7.9138162,-6.1391788)">
    <path
       style="fill:#000000;fill-opacity:1;stroke:none;stroke-width:3.98918px;stroke-linecap:butt;stroke-linejoin:miter;stroke-opacity:1"
       d="m 59.18951,68.719905 c 0,0 -4.185451,2.748505 -2.441707,5.085826 2.829168,3.792393 0.849023,3.821939 7.088549,4.721093 2.159596,0.311198 7.216208,-5.945597 2.90434,-8.17409 -4.311858,-2.228472 -7.551182,-1.632893 -7.551182,-1.632893 z"
       id="path868" />
    <path
       id="path870"
       style="fill:#000000;fill-opacity:1;stroke:none;stroke-width:12.0371;stroke-linecap:butt;stroke-linejoin:miter;stroke-miterlimit:4;stroke-dasharray:none;stroke-opacity:1"
       d="m 125.16407,106.407 c -2.60971,-0.10383 -8.58016,1.29449 -8.58016,1.29449 -3.02576,1.51597 -6.05243,1.74197 -10.02955,4.57498 -3.97713,2.83302 -3.72926,5.75943 -7.827808,10.28956 -1.562765,1.72732 -1.201244,3.09729 -4.480935,5.42138 -1.093346,0.77483 -9.304045,-0.66687 -3.806029,2.69962 5.082946,2.24176 9.084835,4.47575 10.383602,11.40703 0.3477,1.85574 4.18444,4.86702 7.79461,5.79202 4.02507,1.03133 6.17826,1.50177 11.84959,1.23364 12.16023,-0.57497 14.44188,-3.61008 15.34582,-7.36312 0.91828,-3.81273 1.03104,-3.1061 4.39795,-6.59969 3.81016,-3.9535 4.08469,-8.29528 3.08687,-13.80239 -1.99567,-11.01423 -11.10636,-14.66719 -18.13396,-14.94752 z m -9.70869,12.54662 c 0.53855,0.01 1.09603,0.0771 1.67067,0.1715 1.76295,0.25506 2.76049,1.2637 3.20304,1.49365 0.47766,0.24837 0.55625,1.14418 0.64724,1.77578 0,0 -0.15768,0.64781 -0.46469,1.39407 -0.35071,0.85236 -1.14548,0.81865 -2.08004,1.123 -0.93446,0.30327 -1.74515,-0.005 -3.49623,0.0332 -1.27874,0.028 -2.18608,-0.47395 -2.77154,-0.9847 -0.58536,-0.51068 -0.78287,-1.68431 -0.73576,-2.97069 0.99197,-1.60066 2.41166,-2.06491 4.02731,-2.03578 z m 14.63772,0.37618 c 0.4865,-0.0238 0.95158,-0.0156 1.35534,0.006 1.90604,0.42999 3.39077,0.53263 3.96093,2.9209 0.16731,1.32085 -1.77249,2.50516 -2.97069,2.76048 -2.81838,0.46407 -2.35269,0.59249 -5.38819,-0.21574 -1.09738,-0.79781 -1.39538,-1.8299 -0.58639,-3.98306 0.5434,-1.06555 2.16949,-1.41685 3.629,-1.48811 z" />
    <path
       style="fill:#000000;fill-opacity:1;stroke:none;stroke-width:5.07163px;stroke-linecap:butt;stroke-linejoin:miter;stroke-opacity:1"
       d="m 103.01043,68.585117 c -1.49068,0.878247 -3.235792,3.807808 0.74807,5.095408 2.3697,0.76595 5.07781,0.699578 5.61658,-2.248727 0.5861,-3.207454 -3.52911,-3.328818 -3.52911,-3.328818 z"
       id="path876" />
    <path
       style="fill:#000000;fill-opacity:1;stroke:#000000;stroke-width:0;stroke-linecap:butt;stroke-linejoin:miter;stroke-miterlimit:4;stroke-dasharray:none;stroke-opacity:1"
       d="m 132.47477,142.99799 c 0,0 -4.91985,0.84699 -9.90718,-0.6285 -4.98726,-1.47571 -9.48195,-3.0684 -13.50887,-4.48308 -4.02692,-1.41469 -18.621571,-7.1973 -18.621571,-7.1973 -8.824298,-6.1646 5.232486,2.14523 -4.976303,-2.52621 0,0 -4.639113,-2.75165 -11.725992,-4.25223 -7.08689,-1.5006 -6.6756,-2.9921 -6.6756,-2.9921 0,0 0.644769,-1.49984 4.021889,-0.83179 4.079193,0.8061 1.996096,0.88264 5.6332,1.90204 3.637115,1.01966 8.182922,2.27004 12.627534,3.48384 4.302983,0.76553 5.447723,0.9716 7.628279,0.23231 10.297024,2.86238 3.846674,2.60577 12.522434,4.79925 11.58205,2.92814 14.46127,5.48061 21.05374,5.91774 7.62467,0.50549 2.95089,0.70086 2.95089,0.70086"
       id="path888" />
  </g>
  <g
     id="layer4"
     style="display:inline"
     transform="translate(-7.9138162,-6.1391788)">
    <path
       style="fill:#000000;fill-opacity:1;stroke:#000000;stroke-width:2.83239px;stroke-linecap:butt;stroke-linejoin:miter;stroke-opacity:1"
       d="m 25.652081,62.099983 c 0,0 -8.549196,-6.579211 -11.628855,-9.880956 -3.079659,-3.301734 -12.0814724,-8.330685 14.667554,-14.887498 0,0 2.004682,-1.76998 0.997074,-5.462586 -1.102337,-4.039736 1.045996,-10.049772 3.529025,-9.90016 4.966015,0.29923 1.727409,24.835449 0.700007,30.954747 -1.027476,6.119298 -8.264741,9.176453 -8.264741,9.176453 z"
       id="path884" />
    <path
       style="fill:#000000;fill-opacity:1;stroke:#000000;stroke-width:2.83239px;stroke-linecap:butt;stroke-linejoin:miter;stroke-opacity:1"
       d="m 97.419621,42.838802 9.291009,13.653459 c 0,0 24.56392,-2.488007 28.14326,-4.218745 3.57934,-1.730727 3.03341,-4.865494 3.03341,-4.865494 0,0 3.73548,2.19519 6.48015,1.613635 2.36185,-0.500464 16.38444,-5.199689 18.92151,-3.433118 2.53706,1.766568 -0.87215,-1.529824 -2.53542,-4.388249 -1.66305,-2.858424 -4.11675,-7.045451 -10.69505,-10.35205 -2.9065,-1.460961 -5.36327,-2.047123 -12.30225,-1.986063 -3.94467,0.03468 -10.63356,0.453779 -14.10774,3.259548 0,0 -8.1996,5.780484 -12.76948,7.434923 -11.566618,4.187476 -12.774861,-4.243107 -13.459399,3.282154 z"
       id="path886" />
  </g>
</svg>
